<svg width="24" height="24" viewBox="0 0 24 24" fill="none" xmlns="http://www.w3.org/2000/svg">
<g id="facebook_filled">
<path id="Shape" d="M19.7778 2.00061H4.22222C2.99444 2.00061 2 2.99505 2 4.22283V19.7784C2 21.0062 2.99444 22.0006 4.22222 22.0006H12.69V14.2662H10.0867V11.2384H12.69V9.01061C12.69 6.42839 14.2689 5.02061 16.5733 5.02061C17.35 5.01839 18.1256 5.05839 18.8978 5.13728V7.83728H17.3111C16.0556 7.83728 15.8111 8.43061 15.8111 9.30617V11.2339H18.8111L18.4211 14.2617H15.7933V22.0006H19.7778C21.0056 22.0006 22 21.0062 22 19.7784V4.22283C22 2.99505 21.0056 2.00061 19.7778 2.00061Z" fill="#2D3033"/>
</g>
</svg>
