<svg width="24" height="24" viewBox="0 0 24 24" fill="none" xmlns="http://www.w3.org/2000/svg">
<g id="twitterx_filled">
<path id="Shape" d="M9.83667 7.54283L16.0933 16.4584H14.43L8.18444 7.54283H9.83667ZM22 5.33394V18.6673C22 20.5084 20.5078 22.0006 18.6667 22.0006H5.33333C3.49222 22.0006 2 20.5084 2 18.6673V5.33394C2 3.49283 3.49222 2.00061 5.33333 2.00061H18.6667C20.5078 2.00061 22 3.49283 22 5.33394ZM18.1533 17.5562L13.5022 10.9006L17.3044 6.44506H15.8478L12.8433 9.95617L10.3911 6.44506H6.11333L10.4922 12.7039L6.34 17.5562H7.82111L11.1556 13.6495L13.8867 17.5562H18.1533Z" fill="#2D3033"/>
</g>
</svg>
