<svg width="24" height="24" viewBox="0 0 24 24" fill="none" xmlns="http://www.w3.org/2000/svg">
<path d="M5.33333 2C3.50559 2 2 3.50559 2 5.33333V18.6667C2 20.4944 3.50559 22 5.33333 22H18.6667C20.4944 22 22 20.4944 22 18.6667V5.33333C22 3.50559 20.4944 2 18.6667 2H5.33333ZM12 6.44444H14.2222C14.2222 7.56111 15.8567 8.66667 16.4444 8.66667V10.8889C15.7722 10.8889 14.9644 10.5935 14.2222 10.0946V14.2222C14.2222 16.06 12.7267 17.5556 10.8889 17.5556C9.05111 17.5556 7.55556 16.06 7.55556 14.2222C7.55556 12.3844 9.05111 10.8889 10.8889 10.8889V13.1111C10.2756 13.1111 9.77778 13.61 9.77778 14.2222C9.77778 14.8344 10.2756 15.3333 10.8889 15.3333C11.5022 15.3333 12 14.8344 12 14.2222V6.44444Z" fill="#2D3033"/>
</svg>
