<svg width="24" height="24" viewBox="0 0 24 24" fill="none" xmlns="http://www.w3.org/2000/svg">
<g id="instagram_filled">
<path id="Shape" d="M7.55556 2.00061C4.48778 2.00061 2 4.48839 2 7.55617V16.4451C2 19.5128 4.48778 22.0006 7.55556 22.0006H16.4444C19.5122 22.0006 22 19.5128 22 16.4451V7.55617C22 4.48839 19.5122 2.00061 16.4444 2.00061H7.55556ZM18.6667 4.22283C19.28 4.22283 19.7778 4.72061 19.7778 5.33394C19.7778 5.94728 19.28 6.44506 18.6667 6.44506C18.0533 6.44506 17.5556 5.94728 17.5556 5.33394C17.5556 4.72061 18.0533 4.22283 18.6667 4.22283ZM12 6.44506C15.0678 6.44506 17.5556 8.93283 17.5556 12.0006C17.5556 15.0684 15.0678 17.5562 12 17.5562C8.93222 17.5562 6.44444 15.0684 6.44444 12.0006C6.44444 8.93283 8.93222 6.44506 12 6.44506ZM12 8.66728C11.1159 8.66728 10.2681 9.01847 9.64298 9.64359C9.01786 10.2687 8.66667 11.1166 8.66667 12.0006C8.66667 12.8847 9.01786 13.7325 9.64298 14.3576C10.2681 14.9828 11.1159 15.3339 12 15.3339C12.8841 15.3339 13.7319 14.9828 14.357 14.3576C14.9821 13.7325 15.3333 12.8847 15.3333 12.0006C15.3333 11.1166 14.9821 10.2687 14.357 9.64359C13.7319 9.01847 12.8841 8.66728 12 8.66728Z" fill="#2D3033"/>
</g>
</svg>
